<?xml version="1.0" encoding="UTF-8"?>
<svg id="_Слой_2" data-name="Слой 2" xmlns="http://www.w3.org/2000/svg" viewBox="0 0 144 197.04">
  <defs>
    <style>
      .cls-1 {
        fill: #fff;
      }
    </style>
  </defs>
  <g id="_Слой_1-2" data-name="Слой 1">
    <g>
      <path class="cls-1" d="m114.44,47.42h10.17V12.65h-10.17v-2.38h23.11v2.38h-10.17v34.77h10.17v2.38h-23.11v-2.38Z"/>
      <path class="cls-1" d="m9,70.27h2.66v37.15h20.66v2.38H9v-39.53Z"/>
      <path class="cls-1" d="m39.23,89.9c0-12.54,6.15-20.35,14.77-20.35s14.77,7.81,14.77,20.35-6.15,20.62-14.77,20.62-14.77-8.03-14.77-20.62Zm26.64,0c0-10.99-4.79-17.83-11.87-17.83s-11.87,6.84-11.87,17.83,4.79,18.11,11.87,18.11,11.87-7.06,11.87-18.11Z"/>
      <path class="cls-1" d="m75.52,70.27h2.95l7.3,23.07c1.51,4.84,2.56,8.49,4.17,13.27h.24c1.62-4.78,2.68-8.43,4.17-13.27l7.3-23.07h2.8l-12.92,39.53h-3l-13.04-39.53Z"/>
      <path class="cls-1" d="m115.62,70.27h23.4v2.38h-20.63v14.96h17.37v2.38h-17.37v17.43h21.23v2.38h-24v-39.53Z"/>
      <path class="cls-1" d="m41.31,130.27h2.78v17.31h19.81v-17.31h2.78v39.53h-2.78v-19.79h-19.81v19.79h-2.78v-39.53Z"/>
      <path class="cls-1" d="m77.31,155.01v-24.74h2.78v24.42c0,10.15,4.63,13.31,9.92,13.31s10.04-3.16,10.04-13.31v-24.42h2.63v24.74c0,11.98-6.04,15.51-12.67,15.51s-12.71-3.53-12.71-15.51Z"/>
      <path class="cls-1" d="m115.62,130.27h23.4v2.38h-20.63v14.96h17.37v2.38h-17.37v17.43h21.23v2.38h-24v-39.53Z"/>
    </g>
  </g>
</svg>